<svg data-bbox="20 20 160 160" xmlns="http://www.w3.org/2000/svg" viewBox="0 0 200 200" height="200" width="200" data-type="color">
    <g>
        <path fill="#141E2A" d="m166.801 87.664-48.596 4.797 37.75-30.957c5.393-4.707 5.661-12.99.596-18.055-5.065-5.065-13.348-4.767-18.056.596l-30.957 37.75 4.797-48.596C112.812 26.05 107.151 20 100 20c-7.15 0-12.812 6.048-12.335 13.2l4.797 48.595-30.957-37.75c-4.708-5.393-12.991-5.661-18.056-.596-5.065 5.065-4.767 13.348.596 18.055l37.75 30.957L33.2 87.664C26.05 87.188 20 92.85 20 100c0 7.151 6.048 12.812 13.2 12.336l48.595-4.797-37.75 30.957c-5.393 4.707-5.661 12.99-.596 18.055 5.065 5.065 13.348 4.767 18.056-.596l30.957-37.75-4.797 48.596C87.188 173.952 92.849 180 100 180c7.151 0 12.812-6.048 12.335-13.199l-4.797-48.596 30.957 37.75c4.708 5.393 12.991 5.661 18.056.596 5.065-5.065 4.767-13.348-.596-18.055l-37.75-30.957 48.596 4.797C173.952 112.811 180 107.15 180 100c0-7.151-6.048-12.812-13.199-12.336Z" data-color="1"></path>
    </g>
</svg>